<?xml version="1.0" encoding="UTF-8"?>
<svg width="800" height="800" viewBox="0 0 20 20" xmlns="http://www.w3.org/2000/svg" role="img" aria-label="GitHub logo">
  <title>GitHub logo</title>
  <circle cx="10" cy="10" r="10" fill="#ffffff"/>
  <path fill="#000000" d="M10 1.5C5.3 1.5 1.5 5.3 1.5 10c0 3.7 2.4 6.8 5.7 8 .4.1.6-.2.6-.4v-1.5c-2.3.5-2.8-1-2.8-1-.4-1-.9-1.2-.9-1.2-.8-.6.1-.6.1-.6.9.1 1.4.9 1.4.9.8 1.4 2.1 1 2.6.8.1-.6.3-1 .6-1.2-1.8-.2-3.8-.9-3.8-4.2 0-.9.3-1.6.8-2.2-.1-.2-.4-1.1.1-2.3 0 0 .7-.2 2.3.8.7-.2 1.5-.3 2.3-.3s1.6.1 2.3.3c1.6-1 2.3-.8 2.3-.8.5 1.2.2 2.1.1 2.3.5.6.8 1.3.8 2.2 0 3.3-2 4-3.9 4.2.3.2.6.7.6 1.5v2.2c0 .2.2.5.6.4 3.3-1.2 5.7-4.3 5.7-8 0-4.7-3.8-8.5-8.5-8.5Z"/>
</svg>